<svg width="114" height="103" viewBox="0 0 114 103" fill="none" xmlns="http://www.w3.org/2000/svg">
<g clip-path="url(#clip0_2_59)">
<path d="M102.797 28.1471L87.4678 1.50761C87.2052 1.0508 86.828 0.671162 86.3738 0.406614C85.9195 0.142066 85.4041 0.00186148 84.8791 0L29.1359 0C28.6108 0.00186148 28.0954 0.142066 27.6412 0.406614C27.1869 0.671162 26.8097 1.0508 26.5472 1.50761L11.2551 28.1471C10.9922 28.6047 10.8535 29.1237 10.853 29.6521C10.8526 30.1804 10.9903 30.6997 11.2525 31.1577C11.5147 31.6158 11.8921 31.9966 12.3469 32.262C12.8017 32.5274 13.3179 32.6681 13.8438 32.6699H100.194C100.721 32.6707 101.239 32.532 101.696 32.2676C102.153 32.0033 102.532 31.6228 102.796 31.1643C103.06 30.7058 103.199 30.1855 103.199 29.6558C103.2 29.1262 103.061 28.6058 102.797 28.1471Z" fill="#11D3B4"/>
<path d="M69.3919 103H84.8641C85.3929 103.002 85.913 102.864 86.3715 102.599C86.8301 102.334 87.2108 101.953 87.4753 101.492L113.595 56.0379C113.858 55.5792 113.997 55.0589 113.997 54.5292C113.997 53.9995 113.858 53.4793 113.594 53.0208C113.33 52.5623 112.95 52.1817 112.493 51.9174C112.036 51.6531 111.518 51.5143 110.991 51.5151H69.3919C68.5959 51.5151 67.8325 51.8328 67.2696 52.3982C66.7068 52.9637 66.3906 53.7306 66.3906 54.5303V99.9848C66.3906 100.784 66.7068 101.551 67.2696 102.117C67.8325 102.682 68.5959 103 69.3919 103Z" fill="#007EF6"/>
<path d="M44.6305 51.5H3.00136C2.47477 51.5005 1.95758 51.6403 1.50174 51.9051C1.04591 52.17 0.667454 52.5507 0.404391 53.009C0.141329 53.4672 0.00291666 53.987 0.00305186 54.516C0.00318705 55.045 0.141865 55.5647 0.405162 56.0228L26.5472 101.507C26.8097 101.964 27.187 102.344 27.6412 102.608C28.0955 102.873 28.6108 103.013 29.1359 103.015H44.6305C45.4265 103.015 46.19 102.697 46.7528 102.132C47.3157 101.566 47.6319 100.8 47.6319 99.9999V54.5077C47.6299 53.7093 47.3128 52.9443 46.7502 52.3805C46.1875 51.8166 45.4252 51.5 44.6305 51.5Z" fill="#0164A8"/>
</g>
<defs>
<clipPath id="clip0_2_59">
<rect width="114" height="103" fill="white"/>
</clipPath>
</defs>
</svg>
