<svg width="462" height="144" viewBox="0 0 462 144" fill="none" xmlns="http://www.w3.org/2000/svg">
<g clip-path="url(#clip0_1809_3434)">
<path d="M137 41.34L116.57 6C116.22 5.39399 115.717 4.89037 115.112 4.53942C114.507 4.18847 113.82 4.00247 113.12 4H38.83C38.1303 4.00247 37.4434 4.18847 36.838 4.53942C36.2326 4.89037 35.7299 5.39399 35.38 6L15 41.34C14.6495 41.947 14.4647 42.6355 14.4641 43.3365C14.4635 44.0374 14.6471 44.7262 14.9965 45.3339C15.3459 45.9416 15.8488 46.4467 16.455 46.7988C17.0611 47.1509 17.7491 47.3375 18.45 47.34H133.53C134.233 47.341 134.923 47.157 135.532 46.8063C136.141 46.4557 136.647 45.9508 136.999 45.3426C137.35 44.7343 137.536 44.0441 137.536 43.3415C137.536 42.6388 137.351 41.9485 137 41.34V41.34Z" fill="#11D3B4"/>
<path d="M92.48 140.64H113.1C113.805 140.643 114.498 140.459 115.109 140.108C115.72 139.757 116.228 139.251 116.58 138.64L151.39 78.3401C151.741 77.7316 151.926 77.0413 151.926 76.3386C151.926 75.636 151.74 74.9458 151.389 74.3375C151.037 73.7293 150.531 73.2244 149.922 72.8738C149.313 72.5231 148.623 72.3391 147.92 72.3401H92.48C91.4191 72.3401 90.4017 72.7615 89.6516 73.5117C88.9014 74.2618 88.48 75.2792 88.48 76.3401V136.64C88.48 137.701 88.9014 138.718 89.6516 139.469C90.4017 140.219 91.4191 140.64 92.48 140.64Z" fill="#007EF6"/>
<path d="M59.48 72.3201H3.99999C3.29819 72.3208 2.60893 72.5061 2.00143 72.8575C1.39392 73.2089 0.88955 73.7139 0.538962 74.3218C0.188375 74.9298 0.00390931 75.6193 0.00408949 76.3211C0.00426966 77.0229 0.189089 77.7123 0.539989 78.3201L35.38 138.66C35.7299 139.266 36.2326 139.77 36.838 140.121C37.4434 140.472 38.1302 140.658 38.83 140.66H59.48C60.5409 140.66 61.5583 140.239 62.3084 139.489C63.0586 138.738 63.48 137.721 63.48 136.66V76.3101C63.4773 75.2509 63.0547 74.2361 62.3049 73.4881C61.555 72.7401 60.5391 72.3201 59.48 72.3201V72.3201Z" fill="#0164A8"/>
</g>
<path d="M207.52 106.96C202.272 106.96 198.368 105.584 195.808 102.832C193.312 100.08 192.064 96.336 192.064 91.6V70.48H185.632V60.496H192.064V50.704L205.024 46.864V60.496H216.544L215.776 70.48H205.024V90.736C205.024 93.232 205.6 94.96 206.752 95.92C207.904 96.816 209.696 97.264 212.128 97.264C213.92 97.264 215.776 96.944 217.696 96.304V105.232C216.288 105.808 214.752 106.224 213.088 106.48C211.424 106.8 209.568 106.96 207.52 106.96ZM224.347 106V60.496H236.347L236.923 65.2C238.971 63.92 241.499 62.768 244.507 61.744C247.579 60.656 250.587 59.92 253.531 59.536V69.328C251.803 69.584 249.915 69.968 247.867 70.48C245.819 70.992 243.867 71.568 242.011 72.208C240.155 72.848 238.587 73.52 237.307 74.224V106H224.347ZM281.997 106.96C274.125 106.96 267.885 105.008 263.277 101.104C258.669 97.136 256.365 91.152 256.365 83.152C256.365 75.92 258.285 70.192 262.125 65.968C266.029 61.68 271.821 59.536 279.501 59.536C286.541 59.536 291.917 61.392 295.629 65.104C299.405 68.752 301.292 73.552 301.292 79.504V87.76H268.365C269.069 91.408 270.733 93.904 273.357 95.248C276.045 96.592 279.821 97.264 284.685 97.264C287.117 97.264 289.581 97.04 292.077 96.592C294.637 96.144 296.813 95.568 298.605 94.864V104.08C296.493 105.04 294.029 105.744 291.213 106.192C288.397 106.704 285.325 106.96 281.997 106.96ZM268.365 79.792H289.965V77.296C289.965 74.672 289.197 72.624 287.661 71.152C286.125 69.616 283.533 68.848 279.885 68.848C275.597 68.848 272.589 69.712 270.861 71.44C269.197 73.168 268.365 75.952 268.365 79.792ZM334.028 106.96C326.156 106.96 319.916 105.008 315.308 101.104C310.7 97.136 308.396 91.152 308.396 83.152C308.396 75.92 310.316 70.192 314.156 65.968C318.06 61.68 323.852 59.536 331.532 59.536C338.572 59.536 343.948 61.392 347.66 65.104C351.436 68.752 353.324 73.552 353.324 79.504V87.76H320.396C321.1 91.408 322.764 93.904 325.388 95.248C328.076 96.592 331.852 97.264 336.716 97.264C339.148 97.264 341.612 97.04 344.108 96.592C346.668 96.144 348.844 95.568 350.636 94.864V104.08C348.524 105.04 346.06 105.744 343.244 106.192C340.428 106.704 337.356 106.96 334.028 106.96ZM320.396 79.792H341.996V77.296C341.996 74.672 341.228 72.624 339.692 71.152C338.156 69.616 335.564 68.848 331.916 68.848C327.628 68.848 324.62 69.712 322.892 71.44C321.228 73.168 320.396 75.952 320.396 79.792ZM381.547 122.896C378.155 122.896 374.667 122.672 371.083 122.224C367.563 121.776 364.587 121.136 362.155 120.304V110.608C364.715 111.44 367.723 112.08 371.179 112.528C374.635 113.04 377.867 113.296 380.875 113.296C385.291 113.296 388.491 113.04 390.475 112.528C392.459 112.08 393.451 111.248 393.451 110.032C393.451 109.008 393.003 108.304 392.107 107.92C391.275 107.536 389.483 107.344 386.731 107.344H374.347C366.219 107.344 362.155 104.336 362.155 98.32C362.155 96.464 362.667 94.768 363.691 93.232C364.715 91.696 366.347 90.48 368.587 89.584C363.403 86.96 360.811 82.544 360.811 76.336C360.811 70.448 362.635 66.192 366.283 63.568C369.931 60.88 375.339 59.536 382.507 59.536C383.979 59.536 385.579 59.664 387.307 59.92C389.099 60.112 390.443 60.304 391.339 60.496H408.427L408.139 68.656H400.939C402.923 70.512 403.915 73.104 403.915 76.432C403.915 81.104 402.443 84.848 399.499 87.664C396.555 90.416 392.203 91.792 386.443 91.792C385.419 91.792 384.427 91.76 383.467 91.696C382.571 91.568 381.643 91.44 380.683 91.312C378.763 91.568 377.131 92.016 375.787 92.656C374.507 93.296 373.867 94.16 373.867 95.248C373.867 96.72 375.179 97.456 377.803 97.456H390.667C395.275 97.456 398.827 98.512 401.323 100.624C403.819 102.672 405.067 105.68 405.067 109.648C405.067 114.128 403.051 117.456 399.019 119.632C394.987 121.808 389.163 122.896 381.547 122.896ZM382.603 84.496C386.443 84.496 389.099 83.856 390.571 82.576C392.107 81.232 392.875 78.992 392.875 75.856C392.875 72.72 392.107 70.448 390.571 69.04C389.099 67.632 386.443 66.928 382.603 66.928C378.955 66.928 376.331 67.632 374.731 69.04C373.131 70.384 372.331 72.656 372.331 75.856C372.331 78.8 373.067 80.976 374.539 82.384C376.075 83.792 378.763 84.496 382.603 84.496ZM439.028 106.96C431.156 106.96 424.916 105.008 420.308 101.104C415.7 97.136 413.396 91.152 413.396 83.152C413.396 75.92 415.316 70.192 419.156 65.968C423.06 61.68 428.852 59.536 436.532 59.536C443.572 59.536 448.948 61.392 452.66 65.104C456.436 68.752 458.324 73.552 458.324 79.504V87.76H425.396C426.1 91.408 427.764 93.904 430.388 95.248C433.076 96.592 436.852 97.264 441.716 97.264C444.148 97.264 446.612 97.04 449.108 96.592C451.668 96.144 453.844 95.568 455.636 94.864V104.08C453.524 105.04 451.06 105.744 448.244 106.192C445.428 106.704 442.356 106.96 439.028 106.96ZM425.396 79.792H446.996V77.296C446.996 74.672 446.228 72.624 444.692 71.152C443.156 69.616 440.564 68.848 436.916 68.848C432.628 68.848 429.62 69.712 427.892 71.44C426.228 73.168 425.396 75.952 425.396 79.792Z" fill="black"/>
<defs>
<clipPath id="clip0_1809_3434">
<rect width="151.93" height="136.64" fill="white" transform="translate(0 4)"/>
</clipPath>
</defs>
</svg>
